Land_normalized_Motion_pl01
version=1
nRows=8
nColumns=43
inDegrees=yes
endheader
time		pelvis_tilt		pelvis_list		pelvis_rotation		pelvis_tx		pelvis_ty		pelvis_tz		hip_flexion_r		hip_adduction_r		hip_rotation_r		knee_angle_r		ankle_angle_r		subtalar_angle_r		mtp_angle_r		hip_flexion_l		hip_adduction_l		hip_rotation_l		knee_angle_l		ankle_angle_l		subtalar_angle_l		mtp_angle_l		lumbar_extension		lumbar_bending		lumbar_rotation		neck_flexion		neck_lateral_bending		neck_rotation		arm_flex_r		arm_add_r		arm_rot_r		elbow_flex_r		pro_sup_r		wrist_flex_r		wrist_dev_r		hand_finger_flex_r		arm_flex_l		arm_add_l		arm_rot_l		elbow_flex_l		pro_sup_l		wrist_flex_l		wrist_dev_l		hand_finger_flex_l		
0.815000		0.183009		20.730196		89.683578		-0.022429		1.044474		0.579669		9.113472		-4.296705		-9.068943		-27.748077		-30.613311		1.069287		15.188570		7.593106		-5.374463		-9.757204		-29.275786		-27.303323		-8.711334		23.537747		-49.322784		-2.265355		-5.477288		-32.126842		-0.958383		2.845336		-54.990861		-17.934432		-27.407476		32.470891		94.155269		-17.298569		8.662485		26.531090		-58.993202		-16.244705		-26.500087		53.575024		106.366041		-25.890944		4.532864		65.682411		
0.817929		0.155101		20.963915		89.786060		-0.022694		1.032086		0.576173		9.533745		-4.360176		-8.799070		-29.284104		-30.634583		0.952966		14.942780		8.117768		-5.389940		-9.461656		-30.842353		-27.210803		-8.765985		23.599682		-49.883922		-2.214788		-5.564782		-31.275667		-0.853705		2.813704		-54.017608		-17.942078		-27.434622		31.926323		94.940698		-17.428124		8.871111		26.540165		-57.838536		-16.407547		-26.654358		52.758232		106.722178		-25.797781		4.609138		65.640728		
0.820859		0.144470		20.745662		89.966589		-0.023107		1.018677		0.572812		10.595134		-4.396794		-8.449639		-31.044939		-30.641981		0.725636		14.119270		9.326614		-5.389518		-8.900792		-32.660611		-27.169883		-8.832165		23.625917		-49.934289		-2.086758		-5.739777		-30.622296		-0.810061		2.825546		-52.990666		-17.900135		-27.834214		31.437292		96.933347		-17.599392		8.964764		26.705210		-56.734122		-16.418138		-27.105234		52.035982		107.671158		-25.464013		4.478133		65.674629		
0.823788		0.084704		21.032617		90.076708		-0.023322		1.006094		0.569352		10.987899		-4.463985		-8.099689		-32.535232		-30.872666		0.583936		13.824636		9.860194		-5.343279		-8.550368		-34.256710		-27.278363		-8.798078		23.607100		-50.553379		-2.060409		-5.863295		-29.703631		-0.831656		2.720069		-52.003384		-17.962777		-27.557501		31.069393		97.903385		-17.939837		9.057988		26.599419		-55.621277		-16.607036		-27.277587		51.431371		107.999255		-25.355723		4.488416		65.664397		
0.826717		0.031444		21.289466		90.173687		-0.023757		0.993378		0.565829		11.421553		-4.556933		-7.830307		-33.978821		-31.158988		0.494175		13.576906		10.421950		-5.295362		-8.286238		-35.797948		-27.457895		-8.738970		23.593403		-51.129102		-2.008543		-5.951646		-28.833293		-0.755975		2.670873		-51.009976		-18.042432		-27.351566		30.752791		98.724174		-18.152602		9.132996		26.564849		-54.460893		-16.799324		-27.385860		50.862661		108.339932		-25.231039		4.476765		65.674812		
0.829646		-0.023333		21.589759		90.295779		-0.023951		0.980677		0.562427		11.798785		-4.601981		-7.495256		-35.338571		-31.391895		0.545633		13.564813		10.914519		-5.259484		-8.054125		-37.217559		-27.595725		-8.640165		23.663348		-51.786258		-1.955240		-6.035031		-27.756434		-0.731349		2.621761		-49.951906		-18.105812		-27.121229		30.468464		99.192767		-18.194549		9.221393		26.587052		-53.263976		-17.123556		-27.401640		50.310617		108.605437		-25.132643		4.485837		65.706573		
0.832576		-0.062528		21.241349		90.438753		-0.024303		0.966568		0.558982		13.027497		-4.631901		-7.039519		-36.936926		-31.213238		0.833452		14.136134		12.302134		-5.185564		-7.548530		-38.939327		-27.441300		-8.366281		24.284231		-51.706275		-1.874104		-6.185259		-26.993880		-0.778902		2.498940		-48.871872		-18.213274		-26.913291		30.171290		100.541295		-18.207161		8.937649		26.876257		-52.099859		-17.278974		-27.702316		49.779235		109.566590		-24.771705		4.038184		66.115303		
0.835505		-0.092273		21.487294		90.517470		-0.024748		0.953742		0.555621		13.456184		-4.628540		-6.606655		-38.299895		-30.629581		1.095328		15.051083		12.845368		-5.111662		-7.253176		-40.380957		-26.871459		-8.182325		25.051721		-52.318709		-1.799406		-6.214415		-25.915725		-0.672840		2.470003		-47.696271		-18.284059		-26.886676		29.951913		100.836357		-18.116723		8.989029		27.077658		-50.781341		-17.557184		-27.709473		49.311014		109.929238		-24.661618		3.973013		66.269880		
